<?xml version="1.0" encoding="utf-8"?>
<!-- Generator: Adobe Illustrator 13.0.1, SVG Export Plug-In . SVG Version: 6.00 Build 14948)  -->
<!DOCTYPE svg PUBLIC "-//W3C//DTD SVG 1.1//EN" "http://www.w3.org/Graphics/SVG/1.1/DTD/svg11.dtd">
<svg version="1.1" id="Layer_1" xmlns="http://www.w3.org/2000/svg" xmlns:xlink="http://www.w3.org/1999/xlink" x="0px" y="0px"
	 width="290px" height="180px" viewBox="340 157 336 157"
	 xml:space="preserve">
<path style="fill:#00aaa4;" d="M630.5,322.868V172.661c0-4.579-4.189-8.61-8.768-8.61H399.424c-4.582,0-7.924,4.031-7.924,6.61
	v152.207H630.5z M403.5,177.051h213v135h-213V177.051z"/>
<path style="fill:#00aaa4;" d="M633.684,325.051h-3.71H391.828h-21.514H354.5c0,0,0,1.949,0,6.949s4.5,5.051,4.5,5.051h303
	c0,0,4.5-0.551,4.5-5.051s0-6.949,0-6.949H633.684z"/>
<circle style="fill:#fff;" cx="511" cy="171" r="2"/>
<circle style="fill:#fff;" cx="2" cy="2" r="2"/>
</svg>
